<?xml version="1.0" standalone="no"?>
<!DOCTYPE svg PUBLIC "-//W3C//DTD SVG 20010904//EN"
 "http://www.w3.org/TR/2001/REC-SVG-20010904/DTD/svg10.dtd">
<svg version="1.0" xmlns="http://www.w3.org/2000/svg"
 width="260.000000pt" height="260.000000pt" viewBox="0 0 260.000000 260.000000"
 preserveAspectRatio="xMidYMid meet">
<metadata>
Created by potrace 1.14, written by Peter Selinger 2001-2017
</metadata>
<g transform="translate(0.000000,260.000000) scale(0.100000,-0.100000)"
fill="#000000" stroke="none">
<path d="M1855 1586 c-151 -48 -225 -143 -233 -296 -9 -190 68 -282 335 -399
155 -68 193 -101 193 -168 0 -109 -183 -158 -306 -82 -34 20 -89 78 -96 100
-5 14 -198 -96 -198 -113 0 -21 79 -114 125 -147 109 -78 227 -108 367 -92
123 14 192 43 259 110 68 69 89 123 89 233 0 184 -72 264 -353 393 -145 66
-177 94 -177 155 0 117 151 147 242 48 l37 -40 91 58 c49 32 90 61 90 64 0 17
-64 93 -101 120 -69 50 -138 70 -237 69 -48 0 -105 -6 -127 -13z"/>
<path d="M1170 1163 c0 -236 -5 -446 -10 -467 -11 -49 -37 -75 -86 -86 -72
-17 -125 11 -184 98 l-15 22 -97 -61 -98 -61 16 -29 c23 -46 82 -107 128 -134
74 -43 125 -56 223 -56 146 1 240 43 305 137 55 81 58 108 58 607 l0 457 -120
0 -120 0 0 -427z"/>
</g>
</svg>
